<?xml version="1.0" encoding="UTF-8" standalone="no"?>
<!DOCTYPE svg PUBLIC "-//W3C//DTD SVG 1.1//EN" "http://www.w3.org/Graphics/SVG/1.1/DTD/svg11.dtd">
<svg width="100%" height="100%" viewBox="0 0 1000 1000" version="1.1" xmlns="http://www.w3.org/2000/svg" xmlns:xlink="http://www.w3.org/1999/xlink" xml:space="preserve" xmlns:serif="http://www.serif.com/" style="fill-rule:evenodd;clip-rule:evenodd;stroke-linejoin:round;stroke-miterlimit:2;">
    <g transform="matrix(1.000999,0,0,1.000999,-0.999544,-0.999042)">
        <path d="M1.5,0L999.999,0C1001.047,2.726 999.999,2.844 999.999,36.5L999.999,999.999C997.851,1001.156 997.661,999.999 969.5,999.999L0,999.999C-1.027,998.092 0,995.666 0,993.5L0,0C0.197,-0.46 1.303,0.46 1.5,0Z" style="fill:rgb(25,25,25);"/>
        <path d="M452.501,268.069C371.402,268.058 371.445,268.22 359.501,268.073C354.087,268.006 353.19,271.352 347.991,281.733C347.23,281.359 346.804,279.172 345.64,281.573C344.314,284.309 340.333,291.772 339.863,292.654C338.889,294.48 339.607,294.652 338.7,296.5C338.449,297.011 337.826,296.967 334.603,304.547C331.578,311.658 330.27,310.859 330.104,311.5C329.923,312.2 331.936,312.206 331.756,312.905C328.582,314.673 324.779,314.229 318.499,314.249C307.559,314.282 303.387,314.701 301.825,312.311C299.203,308.297 311.35,263.208 316.294,214.472C316.936,208.144 319.737,209.186 351.501,209.185C678.191,209.17 678.321,209.221 679.345,209.799C681.406,210.963 682.672,211.678 686.625,238.477C695.205,296.643 702.024,310.436 695.618,313.844C687.931,314.844 673.939,314.097 672.438,313.856C669.249,313.345 666.628,311.173 666.201,310.819C666.185,310.14 667.77,310.179 667.754,309.5C667.735,308.64 666.534,308.256 666.125,307.5C665.99,307.251 666.348,306.906 666.216,306.655C665.99,306.228 665.363,306.102 665.155,305.666C664.456,304.198 664.99,304.112 664.207,302.642C659.996,294.729 660.181,294.126 659.5,294.454C658.912,294.736 658.594,295.435 658.006,295.717C645.21,268.982 644.578,268.424 641.536,268.171C639.127,267.971 534.386,268.082 533.46,268.114C533.197,268.123 531.325,268.187 531.145,270.451C530.146,282.975 530.879,282.947 530.921,427.497C530.846,686.535 530.995,686.556 531.678,692.481C534.727,718.921 552.614,741.702 586.503,743.402C617.876,744.975 623.546,740.334 623.531,750.5C623.487,781.889 624.875,786.799 617.493,787.394C615.814,787.53 446.38,787.438 431.5,787.43C379.971,787.402 378.985,787.934 376.671,784.398C374.791,781.525 375.875,747.61 375.877,747.598C378.216,736.39 413.637,752.154 442.74,734.899C470.576,718.396 468.472,686.877 468.453,678.5C468.072,509.827 468.463,282.384 468.247,270.509C468.186,267.129 462.207,268.081 452.501,268.069Z" style="fill:rgb(247,206,96);"/>
        <path d="M732.132,582.49C732.307,581.142 731.516,577.499 736.497,577.417C739.537,577.366 772.62,576.819 774.492,576.909C789,577.607 788.95,576.915 803.502,577.46C810.583,577.725 811.635,580.273 808.219,591.42C789.073,653.882 702.172,690.4 630.746,650.059C605.244,635.656 587.936,606.872 583.835,595.373C576.729,575.451 586.211,577.442 588.5,577.41C591.061,577.376 618.737,577 620.515,577.074C631.223,577.522 627.705,582.396 629.494,595.501C637.425,653.601 728.142,632.286 732.132,582.49Z" style="fill:rgb(247,222,108);"/>
        <path d="M363.529,652.556C360.865,653.864 325.224,676.247 266.511,661.463C224.098,650.783 192.579,605.287 192.317,581.506C192.267,576.989 194.526,577.313 218.501,577.395C225.398,577.419 232.55,575.936 232.624,582.496C232.664,585.976 228.611,632.059 278.499,630.478C296.594,629.904 321.455,618.134 331.079,599.279C339.336,583.101 333.772,577.595 341.499,577.439C347.588,577.316 413.467,575.988 417.62,578.324C423.607,581.692 412.486,606.413 404.103,617.206C387.088,639.113 367.268,650.422 363.529,652.556Z" style="fill:rgb(242,199,85);"/>
        <path d="M625.928,589.45C626.003,589.884 626.652,590.067 626.727,590.5C626.954,591.817 623.908,610.74 644.707,626.181C645.691,626.911 651.287,629.561 651.476,629.558C654.986,629.49 655.462,632.699 664.5,632.273C664.886,632.255 672.356,634.504 677.5,632.361C678.607,631.9 684.165,634.116 702.408,625.278C705.046,624 704.564,623.153 707.521,622.532C707.628,622.51 715.942,617.295 720.11,613.068C726.213,606.877 731.642,598.121 732.434,595.474C736.042,583.415 732.827,580.049 738.472,580.019C738.93,580.016 760.781,580.274 761.425,580.081C765.33,578.914 769.45,579.822 775.513,579.775C778.063,579.755 805.713,579.542 807.389,580.609C808.773,581.491 802.795,601.1 797.989,607.819C797.402,608.638 798.217,608.762 797.739,609.626C797.459,610.133 797.174,609.819 793.424,615.445C789.772,620.926 769.078,651.975 724.482,660.445C722.704,660.782 708.492,665.096 685.494,663.632C661.911,662.13 658.1,658.146 655.556,658.235C651.604,658.372 636.189,650.22 634.579,649.368C632.022,648.016 617.67,640.425 606.663,626.402C596.286,613.182 595.251,613.874 588.217,598.617C587.597,597.271 581.202,583.401 584.475,580.47C585.066,579.941 585.126,580.208 609.494,580.014C611.503,579.998 613.522,579.814 615.52,580.021C615.923,580.062 616.103,580.818 616.5,580.738C617.059,580.625 616.638,579.674 618.516,579.7C622.539,579.756 625.887,578.461 625.82,583.51C625.779,586.555 625.874,586.456 625.928,589.45Z" style="fill:rgb(241,196,82);"/>
        <path d="M307.905,531.499C307.884,446.023 306.059,440.961 311.397,442.81C356.78,458.528 373.534,460.221 378.36,464.668C381.985,468.008 375.952,499.816 375.397,500.418C372.337,503.739 325.222,488.939 322.26,490.003C319.894,490.852 323.579,571.681 320.32,583.443C315.75,599.94 294.537,609.138 289.536,610.606C228.973,628.386 237.42,542.749 294.596,553.023C305.046,554.9 308.848,558.758 308.344,552.512C307.831,546.149 307.917,546.252 307.905,531.499Z" style="fill:rgb(249,227,114);"/>
        <path d="M693.574,607.636C652.406,625.594 631.538,595.452 651.927,567.843C659.087,558.148 676.689,548.314 699.561,555.27C704.333,556.721 704.505,555.897 704.503,555.501C704.223,501.472 703.926,501.531 704.885,447.503C705.025,439.63 709.581,443.731 728.555,449.334C743.946,453.878 774.746,461.677 775.721,465.416C776.751,469.362 772.973,500.015 771.46,501.453C768.915,503.874 719,490.819 718.559,490.934C717.243,491.277 717.452,491.975 717.456,571.5C717.457,588.055 713.716,594.172 693.574,607.636Z" style="fill:rgb(248,226,112);"/>
        <path d="M682.103,354.309C683.187,351.956 692.053,328.21 699.366,337.595C700.353,338.862 745.59,428.794 743.943,434.627C742.782,438.737 722,430.861 720.826,429.234C718,425.32 716.404,417.163 697.236,378.635C696.564,377.286 696.661,377.321 696.039,375.899C694.477,375.88 693.394,378.632 690.788,383.653C690.659,383.902 646.728,472.928 642.897,480.691C635.966,494.735 636.582,494.952 627.871,511.69C626.301,514.705 626.597,514.795 608.841,549.681C605.721,555.811 605.297,560.255 599.497,559.525C596.89,559.196 589.37,559.941 586.255,558.982C586.602,558.352 587.475,558.129 587.822,557.5C588.407,556.439 586.964,555.881 593.319,543.387C593.838,542.366 593.215,542.098 599.11,530.302C601.643,525.232 600.809,524.891 608.292,510.382C616.626,494.222 616.44,494.178 646.416,432.458C649.648,425.804 649.918,426.014 653.084,419.305C657.31,410.35 657.097,410.326 661.364,401.422C662.335,399.395 662.287,399.476 663.322,397.409C664.042,395.969 663.588,395.896 664.323,394.41C664.926,393.191 665.283,393.453 672.379,379.44C673.953,376.333 674.764,375.525 675.046,375.245C675.274,375.017 674.715,374.8 676.343,371.429C676.548,371.003 677.163,370.865 677.348,370.43C677.488,370.103 677.073,369.693 677.221,369.37C677.991,367.685 678.46,368.029 679.202,366.374C679.351,366.043 678.89,365.624 679.045,365.296C679.276,364.808 679.474,364.93 682.336,359.404C682.884,358.346 682.718,358.376 683.193,357.366C683.505,356.701 683.836,357.012 684.085,356.319C684.161,356.106 683.944,356.176 682.103,354.309Z" style="fill:rgb(248,207,96);"/>
        <path d="M375.701,466.146C374.86,467.891 373.684,469.38 375.544,468.626C376.118,468.394 376.319,467.58 376.893,467.348C378.178,471.209 375.441,476.836 375.394,486.493C375.39,487.386 375.161,487.247 373.501,497.501C373.135,499.762 368.677,497.592 366.502,497.485C364.077,497.366 357.132,494.623 355.487,494.543C352.999,494.42 334.236,489.157 332.501,489.495C330.377,489.908 330.626,488.446 328.486,488.545C326.368,488.644 326.545,487.913 324.452,487.688C323.338,487.569 322.761,485.886 320.022,488.5C318.842,489.499 318.776,489.448 318.747,489.579C318.5,490.704 318.854,571.556 318.649,576.521C318.595,577.825 318.261,585.914 312.884,591.789C294.979,611.35 281.202,609.722 271.524,610.31C268.918,610.468 269.052,609.914 266.551,609.304C251.067,605.523 250.674,592.463 250.615,590.492C250.332,581.076 250.281,580.958 254.162,572.347C261.707,555.603 283.566,555.111 286.499,555.045C287.507,555.064 288.515,555.082 289.522,555.1C294.08,555.73 294.082,555.759 294.477,555.703C296.594,555.401 296.429,556.293 298.53,556.39C302.426,556.57 302.18,557.458 302.51,557.471C304.14,557.537 303.893,558.312 305.507,558.47C306.278,558.546 309.109,559.589 310.209,558.292C311.242,557.074 309.417,448.386 310.554,445.579C310.764,445.061 316.951,447.323 317.492,447.521C320.323,448.556 320.407,447.914 320.643,448.012C321.141,448.218 321.192,448.964 321.604,449.312C321.667,449.365 328.197,451.416 328.52,451.433C330.127,451.517 329.91,452.055 331.538,452.334C336.09,453.116 335.791,454.31 340.5,454.332C341.742,454.338 341.331,455.285 342.525,455.385C345.139,455.603 348.049,457.663 349.507,457.461C350.741,457.29 350.644,457.497 351.603,458.188C351.86,458.373 352.21,458.411 352.527,458.406C354.171,458.382 353.917,459.139 355.52,459.419C361.152,460.406 366.643,462.755 367.571,463.152C368.208,463.425 368.198,463.226 375.701,466.146Z" style="fill:rgb(244,200,87);"/>
        <path d="M680.506,555.558C701.032,554.928 705.373,563.574 707.231,556.484C707.353,556.018 706.668,556.07 706.722,550.482C706.919,530.138 706.267,474.629 706.287,474.5C706.541,472.88 707.105,473.071 707.146,471.481C707.784,446.806 706.503,445.035 708.511,445.563C709.828,445.909 709.591,446.486 724.615,451.06C727.484,451.933 727.593,451.419 731.579,453.071C732.642,453.512 737.93,454.209 742.605,456.133C743.214,456.384 747.94,458.328 750.515,458.43C752.669,458.516 760.226,461.936 762.53,462.396C773.411,464.569 773.426,466.551 773.433,467.515C773.495,475.608 769.971,494.794 770.279,496.462C771.488,503.01 757.8,496.187 754.512,496.432C753.433,496.513 745.801,493.75 742.495,493.541C736.642,493.171 733.659,491.21 731.493,491.533C728.484,491.982 714.601,483.97 714.682,492.489C714.706,495.065 714.785,579.521 714.525,580.503C712.044,589.874 711.082,589.439 704.434,596.437C703.379,597.548 703.831,597.815 702.704,598.795C702.485,598.987 702.231,598.421 699.462,600.446C689.897,607.444 684.039,610.266 669.505,610.35C667.862,610.36 662.404,609.535 658.419,607.671C657.436,607.211 657.373,608.193 656.385,607.731C656.362,607.72 652.522,604.091 652.187,603.774C641.797,593.955 645.741,568.351 668.513,558.531C672.572,556.78 672.635,557.208 677.46,556.207C678.476,555.991 679.491,555.774 680.506,555.558Z" style="fill:rgb(244,199,86);"/>
        <path d="M263.5,454.527C263.336,454.758 262.815,454.343 262.651,454.574C262.548,454.72 262.784,454.786 261.684,456.59C260.306,458.851 261.576,459.444 247.339,486.417C244.741,491.338 229.746,522.076 227.998,524.736C225.148,529.071 214.491,555.895 211.577,556.658C210.374,556.973 197.739,557.138 197.391,556.563C197.299,556.41 196.649,555.336 197.109,554.345C197.232,554.079 197.695,554.452 199.323,551.418C199.611,550.882 202.379,545.723 202.443,544.478C202.561,542.195 206.153,537.14 206.399,535.45C206.571,534.262 213.339,521.387 213.482,520.491C213.848,518.205 217.549,513.287 217.565,512.538C217.574,512.137 217.098,511.732 217.272,511.37C217.492,510.911 218.351,510.987 218.536,510.513C218.689,510.119 217.877,509.713 218.066,509.335C218.172,509.123 218.866,510.016 220.28,507.37C224.844,498.829 234.896,477.889 236.134,475.31C236.669,474.196 236.009,473.299 236.009,473.298C236.236,472.809 237.106,472.91 237.384,472.449C237.44,472.357 236.883,471.141 239.016,469.222C239.919,468.41 238.908,467.861 245.348,455.417C260.914,425.341 273.932,394.855 276.219,389.5C276.968,387.746 277.586,388.077 287.172,368.331C288.16,366.296 288.302,366.437 289.276,364.417C289.964,362.987 291.151,360.715 291.318,360.396C293.909,355.435 296.388,348.791 296.5,347.858C297.225,346.614 298.175,345.587 298.342,345.406C299.615,344.032 300.944,339.758 303.44,338.367C307.863,335.9 313.128,353.686 315.679,356.405C317.645,358.501 322.641,370.172 323.665,371.42C324.407,372.325 324.223,372.361 324.681,373.398C324.799,373.665 346.022,411.083 357.345,435.5C358.288,437.535 356.663,436.74 354.501,436.496C352.257,436.243 347.008,434.519 346.51,434.461C343.348,434.092 343.629,433.421 340.47,432.572C339.627,432.345 338.347,432.001 334.291,423.579C333.391,421.712 333.993,421.587 333.078,419.673C327.772,408.568 326.346,407.038 325.5,406.13C325.369,405.429 325.287,405.464 323.283,401.609C320.757,396.751 320.322,397.13 320.11,396.714C319.935,396.37 320.491,395.944 320.356,395.583C320.293,395.414 320.152,395.493 319.351,393.572C319.034,392.812 316.986,387.905 314.366,384.567C311.678,381.145 313.127,380.031 309.5,377.563C309.441,376.699 306.234,365.866 302.72,372.679C297.072,383.63 297.475,383.768 291.788,394.641C290.156,397.76 291.155,398 290.841,398.658C290.619,399.122 289.788,399.061 289.566,399.524C289.398,399.875 290.049,400.294 289.887,400.648C289.675,401.115 288.919,401.121 288.642,401.554C288.46,401.84 288.81,402.268 288.659,402.571C288.447,402.997 287.827,403.132 287.639,403.569C287.497,403.896 287.925,404.311 287.767,404.631C287.551,405.069 286.893,405.153 286.648,405.575C285.805,407.024 286.462,407.157 285.711,408.596C284.858,410.231 284.429,409.882 283.613,411.55C282.902,413.005 283.329,413.071 282.616,414.545C281.149,417.578 280.726,417.291 280.608,417.555C280.449,417.911 281.056,418.341 280.884,418.69C280.658,419.149 279.829,419.092 279.62,419.559C279.454,419.932 280.145,420.361 279.973,420.731C279.756,421.202 278.936,421.144 278.678,421.594C278.494,421.916 279.023,422.367 278.848,422.694C278.613,423.134 277.891,423.137 277.627,423.56C277.461,423.828 277.857,424.215 277.723,424.5C277.566,424.834 275.798,428.242 275.629,428.567C269.577,440.234 269.525,440.164 266.874,445.675C264.311,451.001 265.156,451.265 264.934,451.722C264.879,451.834 263.768,451.433 263.5,454.527Z" style="fill:rgb(248,204,92);"/>
        <path d="M295.078,346.315L296.5,347.858C296.388,348.791 293.909,355.435 291.318,360.396C291.151,360.715 289.964,362.987 289.276,364.417C288.302,366.437 288.16,366.296 287.172,368.331C277.586,388.077 276.968,387.746 276.219,389.5C273.932,394.855 260.914,425.341 245.348,455.417C238.908,467.861 239.919,468.41 239.016,469.222C236.883,471.141 237.44,472.357 237.384,472.449C237.106,472.91 236.236,472.809 236.009,473.298C236.009,473.299 236.669,474.196 236.134,475.31C234.896,477.889 224.844,498.829 220.28,507.37C218.866,510.016 218.172,509.123 218.066,509.335C217.877,509.713 218.689,510.119 218.536,510.513C218.351,510.987 217.492,510.911 217.272,511.37C217.098,511.732 217.574,512.137 217.565,512.538C217.549,513.287 213.848,518.205 213.482,520.491C213.339,521.387 206.571,534.262 206.399,535.45C206.153,537.14 202.561,542.195 202.443,544.478C202.379,545.723 199.611,550.882 199.323,551.418C197.695,554.452 197.232,554.079 197.109,554.345C196.649,555.336 197.299,556.41 197.391,556.563C197.739,557.138 210.374,556.973 211.577,556.658C214.491,555.895 225.148,529.071 227.998,524.736C229.746,522.076 244.741,491.338 247.339,486.417C261.576,459.444 260.306,458.851 261.684,456.59C262.784,454.786 262.548,454.72 262.651,454.574C262.815,454.343 263.336,454.758 263.5,454.527L264.947,455.72C259.467,467.615 215.743,557.511 213.634,558.696C212.784,559.173 193.263,561.58 194.302,556.464C195.894,548.628 225.158,492.661 239.193,462.353C241.914,456.476 242.394,456.81 274.061,389.292C281.564,373.293 285.834,367.496 295.078,346.315Z" style="fill:rgb(249,227,118);"/>
        <path d="M391.323,547.584C383.982,532.349 380.995,527.376 379.938,525.266C375.462,516.329 389.809,512.761 392.526,513.394C397.911,514.647 413.391,548.208 415.079,552.653C418.223,560.932 412.612,559.586 399.507,559.365C396.099,559.307 393.624,552.222 391.323,547.584Z" style="fill:rgb(248,228,117);"/>
        <path d="M783.232,553.627C782.151,551.211 770.241,524.605 769.787,523.398C767.21,516.544 778.219,512.941 780.531,512.831C784.13,512.66 785.504,512.937 803.998,551.27C809.06,561.764 799.971,559.47 791.501,559.391C785.959,559.34 785.877,558.558 783.232,553.627Z" style="fill:rgb(247,227,115);"/>
        <path d="M392.573,516.346C398.032,522.378 405.193,538.88 406.522,540.489C408.499,542.881 409.011,545.683 409.81,547.37C412.824,553.733 412.442,553.882 412.722,554.425C414.343,557.561 411.614,557.052 400.434,556.862C397.977,556.82 397.585,554.109 389.334,537.583C383.904,526.705 378.203,519.403 384.472,518.449C385.214,518.336 386.552,516.813 388.515,516.532C388.696,516.506 389.229,516.43 390.5,515.395C391.191,515.712 391.882,516.029 392.573,516.346Z" style="fill:rgb(245,199,86);"/>
        <path d="M776.367,531.566C775.87,530.526 775.507,530.756 775.401,529.546C775.057,525.642 768.2,522.043 775.483,517.467C786.097,510.798 787.837,527.051 790.547,530.48C791.262,531.385 791.477,531.284 791.503,532.498C791.562,535.227 805.983,556.655 801.605,556.82C787.222,557.362 786.807,555.678 786.514,554.492C786.137,552.962 785.783,553.112 778.499,536.5C778.034,535.441 777.862,535.627 777.352,534.58C776.45,532.726 776.386,531.819 776.367,531.566Z" style="fill:rgb(244,198,85);"/>
        <path d="M682.103,354.309C683.944,356.176 684.161,356.106 684.085,356.319C683.836,357.012 683.505,356.701 683.193,357.366C682.718,358.376 682.884,358.346 682.336,359.404C679.474,364.93 679.276,364.808 679.045,365.296C678.89,365.624 679.351,366.043 679.202,366.374C678.46,368.029 677.991,367.685 677.221,369.37C677.073,369.693 677.488,370.103 677.348,370.43C677.163,370.865 676.548,371.003 676.343,371.429C674.715,374.8 675.274,375.017 675.046,375.245C674.764,375.525 673.953,376.333 672.379,379.44C665.283,393.453 664.926,393.191 664.323,394.41C663.588,395.896 664.042,395.969 663.322,397.409C662.287,399.476 662.335,399.395 661.364,401.422C657.097,410.326 657.31,410.35 653.084,419.305C649.918,426.014 649.648,425.804 646.416,432.458C616.44,494.178 616.626,494.222 608.292,510.382C600.809,524.891 601.643,525.232 599.11,530.302C593.215,542.098 593.838,542.366 593.319,543.387C586.964,555.881 588.407,556.439 587.822,557.5C587.475,558.129 586.602,558.352 586.255,558.982C583.903,556.335 584.567,555.622 594.2,534.367C600.209,521.107 670.484,377.299 682.103,354.309Z" style="fill:rgb(249,227,118);"/>
        <path d="M295.078,346.315C295.648,345.259 301.649,330.328 308.159,336.821C308.783,337.444 332.275,382.382 341.865,399.29C343.56,402.278 362.058,434.891 360.005,438.208C358.243,441.054 347.63,437.386 340.579,435.275C334.175,433.357 336.123,431.034 324,407.768L325.5,406.13C326.346,407.038 327.772,408.568 333.078,419.673C333.993,421.587 333.391,421.712 334.291,423.579C338.347,432.001 339.627,432.345 340.47,432.572C343.629,433.421 343.348,434.092 346.51,434.461C347.008,434.519 352.257,436.243 354.501,436.496C356.663,436.74 358.288,437.535 357.345,435.5C346.022,411.083 324.799,373.665 324.681,373.398C324.223,372.361 324.407,372.325 323.665,371.42C322.641,370.172 317.645,358.501 315.679,356.405C313.128,353.686 307.863,335.9 303.44,338.367C300.944,339.758 299.615,344.032 298.342,345.406C298.175,345.587 297.225,346.614 296.5,347.858L295.078,346.315Z" style="fill:rgb(249,228,122);"/>
        <path d="M308.221,378.652C306.133,374.903 305.052,372.048 303.626,375.558C298.203,388.909 268.12,449.345 264.947,455.72L263.5,454.527C263.768,451.433 264.879,451.834 264.934,451.722C265.156,451.265 264.311,451.001 266.874,445.675C269.525,440.164 269.577,440.234 275.629,428.567C275.798,428.242 277.566,424.834 277.723,424.5C277.857,424.215 277.461,423.828 277.627,423.56C277.891,423.137 278.613,423.134 278.848,422.694C279.023,422.367 278.494,421.916 278.678,421.594C278.936,421.144 279.756,421.202 279.973,420.731C280.145,420.361 279.454,419.932 279.62,419.559C279.829,419.092 280.658,419.149 280.884,418.69C281.056,418.341 280.449,417.911 280.608,417.555C280.726,417.291 281.149,417.578 282.616,414.545C283.329,413.071 282.902,413.005 283.613,411.55C284.429,409.882 284.858,410.231 285.711,408.596C286.462,407.157 285.805,407.024 286.648,405.575C286.893,405.153 287.551,405.069 287.767,404.631C287.925,404.311 287.497,403.896 287.639,403.569C287.827,403.132 288.447,402.997 288.659,402.571C288.81,402.268 288.46,401.84 288.642,401.554C288.919,401.121 289.675,401.115 289.887,400.648C290.049,400.294 289.398,399.875 289.566,399.524C289.788,399.061 290.619,399.122 290.841,398.658C291.155,398 290.156,397.76 291.788,394.641C297.475,383.768 297.072,383.63 302.72,372.679C306.234,365.866 309.441,376.699 309.5,377.563L308.221,378.652Z" style="fill:rgb(249,228,121);"/>
        <path d="M347.991,281.733C334.61,309.746 335.078,310.2 331.756,312.905C331.936,312.206 329.923,312.2 330.104,311.5C330.27,310.859 331.578,311.658 334.603,304.547C337.826,296.967 338.449,297.011 338.7,296.5C339.607,294.652 338.889,294.48 339.863,292.654C340.333,291.772 344.314,284.309 345.64,281.573C346.804,279.172 347.23,281.359 347.991,281.733Z" style="fill:rgb(252,233,129);"/>
        <path d="M308.221,378.652L309.5,377.563C313.127,380.031 311.678,381.145 314.366,384.567C316.986,387.905 319.034,392.812 319.351,393.572C320.152,395.493 320.293,395.414 320.356,395.583C320.491,395.944 319.935,396.37 320.11,396.714C320.322,397.13 320.757,396.751 323.283,401.609C325.287,405.464 325.369,405.429 325.5,406.13L324,407.768C322.731,405.442 322.786,405.534 308.221,378.652Z" style="fill:rgb(251,230,122);"/>
        <path d="M658.006,295.717C658.594,295.435 658.912,294.736 659.5,294.454C660.181,294.126 659.996,294.729 664.207,302.642C664.99,304.112 664.456,304.198 665.155,305.666C665.363,306.102 665.99,306.228 666.216,306.655C666.348,306.906 665.99,307.251 666.125,307.5C666.534,308.256 667.735,308.64 667.754,309.5C667.77,310.179 666.185,310.14 666.201,310.819C663.261,307.528 660.899,301.7 658.006,295.717Z" style="fill:rgb(252,235,130);"/>
        <path d="M173.636,103.498C163.436,102.83 172.044,98.793 172.432,98.8C174.264,98.832 173.372,101.225 173.584,101.467C173.919,101.853 174.166,101.087 174.42,101.555C174.5,101.703 174.364,101.695 173.636,103.498Z" style="fill:rgb(29,28,28);"/>
        <path d="M375.701,466.146C376.099,466.546 376.496,466.947 376.893,467.348C376.319,467.58 376.118,468.394 375.544,468.626C373.684,469.38 374.86,467.891 375.701,466.146Z" style="fill:rgb(248,194,93);"/>
        <path d="M330.591,478.652C330.908,478.628 352.358,477.759 334.503,479.369C332.409,479.558 332.541,479.212 330.591,478.652Z" style="fill:rgb(246,203,89);"/>
        <path d="M286.499,555.045C288.354,554.196 288.337,554.06 288.499,554.13C288.931,554.315 289.09,554.915 289.522,555.1C288.515,555.082 287.507,555.064 286.499,555.045Z" style="fill:rgb(246,208,100);"/>
        <path d="M680.506,555.558C679.491,555.774 678.476,555.991 677.46,556.207C679.215,555.683 679.148,555.507 680.506,555.558Z" style="fill:rgb(246,208,99);"/>
        <path d="M339.539,580.527C339.864,579.803 339.299,579.197 340.001,579.5C340.732,579.816 339.843,579.851 339.539,580.527Z" style="fill:rgb(249,207,100);"/>
    </g>
</svg>
